<mxfile host="app.diagrams.net" modified="2024-07-06T19:17:55.721Z" agent="Mozilla/5.0 (Windows NT 10.0; Win64; x64) AppleWebKit/537.36 (KHTML, like Gecko) Chrome/126.0.0.0 Safari/537.36" etag="dL8FhPq-Gou3TjPhhv79" version="24.6.4" type="device">
  <diagram name="Página-1" id="YeMEVZXAkLuta_paQwwK">
    <mxGraphModel dx="1195" dy="650" grid="1" gridSize="10" guides="1" tooltips="1" connect="1" arrows="1" fold="1" page="1" pageScale="1" pageWidth="827" pageHeight="1169" math="0" shadow="0">
      <root>
        <mxCell id="0" />
        <mxCell id="1" parent="0" />
        <mxCell id="9z-ysAVNwkf0hZEtvn9D-35" value="" style="edgeStyle=orthogonalEdgeStyle;rounded=0;orthogonalLoop=1;jettySize=auto;html=1;entryX=0.564;entryY=-0.036;entryDx=0;entryDy=0;entryPerimeter=0;" edge="1" parent="1" source="9z-ysAVNwkf0hZEtvn9D-1" target="9z-ysAVNwkf0hZEtvn9D-22">
          <mxGeometry relative="1" as="geometry">
            <mxPoint x="294" y="65" as="targetPoint" />
          </mxGeometry>
        </mxCell>
        <mxCell id="9z-ysAVNwkf0hZEtvn9D-36" style="edgeStyle=orthogonalEdgeStyle;rounded=0;orthogonalLoop=1;jettySize=auto;html=1;exitX=0.5;exitY=1;exitDx=0;exitDy=0;entryX=0.5;entryY=0;entryDx=0;entryDy=0;" edge="1" parent="1" source="9z-ysAVNwkf0hZEtvn9D-1" target="9z-ysAVNwkf0hZEtvn9D-19">
          <mxGeometry relative="1" as="geometry" />
        </mxCell>
        <mxCell id="9z-ysAVNwkf0hZEtvn9D-37" style="edgeStyle=orthogonalEdgeStyle;rounded=0;orthogonalLoop=1;jettySize=auto;html=1;exitX=1;exitY=0.5;exitDx=0;exitDy=0;entryX=0.5;entryY=0;entryDx=0;entryDy=0;" edge="1" parent="1" source="9z-ysAVNwkf0hZEtvn9D-1" target="9z-ysAVNwkf0hZEtvn9D-30">
          <mxGeometry relative="1" as="geometry" />
        </mxCell>
        <mxCell id="9z-ysAVNwkf0hZEtvn9D-1" value="&lt;div&gt;&lt;br&gt;&lt;/div&gt;IPHONE&lt;div&gt;&lt;br&gt;&lt;/div&gt;" style="swimlane;fontStyle=0;align=center;verticalAlign=top;childLayout=stackLayout;horizontal=1;startSize=40;horizontalStack=0;resizeParent=1;resizeParentMax=0;resizeLast=0;collapsible=0;marginBottom=0;html=1;whiteSpace=wrap;" vertex="1" parent="1">
          <mxGeometry x="374" y="40" width="80" height="50" as="geometry" />
        </mxCell>
        <mxCell id="9z-ysAVNwkf0hZEtvn9D-19" value="&lt;span style=&quot;box-sizing: border-box; font-weight: var(--base-text-weight-semibold, 600); color: rgb(31, 35, 40); font-family: -apple-system, BlinkMacSystemFont, &amp;quot;Segoe UI&amp;quot;, &amp;quot;Noto Sans&amp;quot;, Helvetica, Arial, sans-serif, &amp;quot;Apple Color Emoji&amp;quot;, &amp;quot;Segoe UI Emoji&amp;quot;; font-size: 16px; text-align: left; background-color: rgb(255, 255, 255);&quot;&gt;Aparelho Telefônico&lt;/span&gt;" style="swimlane;fontStyle=1;align=center;verticalAlign=middle;childLayout=stackLayout;horizontal=1;startSize=30;horizontalStack=0;resizeParent=1;resizeParentMax=0;resizeLast=0;collapsible=0;marginBottom=0;html=1;whiteSpace=wrap;" vertex="1" parent="1">
          <mxGeometry x="300" y="320" width="228.5" height="105" as="geometry" />
        </mxCell>
        <mxCell id="9z-ysAVNwkf0hZEtvn9D-20" value="&lt;span style=&quot;color: rgb(31, 35, 40); font-family: ui-monospace, SFMono-Regular, &amp;quot;SF Mono&amp;quot;, Menlo, Consolas, &amp;quot;Liberation Mono&amp;quot;, monospace; font-size: 13.6px; text-align: left; white-space-collapse: break-spaces; background-color: rgba(175, 184, 193, 0.2);&quot;&gt;+ ligar(String numero) : void&lt;/span&gt;" style="text;html=1;strokeColor=none;fillColor=none;align=center;verticalAlign=middle;spacingLeft=4;spacingRight=4;overflow=hidden;rotatable=0;points=[[0,0.5],[1,0.5]];portConstraint=eastwest;whiteSpace=wrap;" vertex="1" parent="9z-ysAVNwkf0hZEtvn9D-19">
          <mxGeometry y="30" width="228.5" height="25" as="geometry" />
        </mxCell>
        <mxCell id="9z-ysAVNwkf0hZEtvn9D-38" value="&lt;span style=&quot;color: rgb(31, 35, 40); font-family: ui-monospace, SFMono-Regular, &amp;quot;SF Mono&amp;quot;, Menlo, Consolas, &amp;quot;Liberation Mono&amp;quot;, monospace; font-size: 13.6px; text-align: left; white-space-collapse: break-spaces; background-color: rgba(175, 184, 193, 0.2);&quot;&gt;+ atender() : void&lt;/span&gt;" style="text;html=1;strokeColor=none;fillColor=none;align=center;verticalAlign=middle;spacingLeft=4;spacingRight=4;overflow=hidden;rotatable=0;points=[[0,0.5],[1,0.5]];portConstraint=eastwest;whiteSpace=wrap;" vertex="1" parent="9z-ysAVNwkf0hZEtvn9D-19">
          <mxGeometry y="55" width="228.5" height="25" as="geometry" />
        </mxCell>
        <mxCell id="9z-ysAVNwkf0hZEtvn9D-42" value="&lt;div style=&quot;text-align: left;&quot;&gt;&lt;font face=&quot;ui-monospace, SFMono-Regular, SF Mono, Menlo, Consolas, Liberation Mono, monospace&quot; color=&quot;#1f2328&quot;&gt;&lt;span style=&quot;font-size: 13.6px; white-space-collapse: break-spaces; background-color: rgba(175, 184, 193, 0.2);&quot;&gt;+ iniciarCoreioVoz() : void&lt;/span&gt;&lt;/font&gt;&lt;/div&gt;" style="text;html=1;strokeColor=none;fillColor=none;align=center;verticalAlign=middle;spacingLeft=4;spacingRight=4;overflow=hidden;rotatable=0;points=[[0,0.5],[1,0.5]];portConstraint=eastwest;whiteSpace=wrap;" vertex="1" parent="9z-ysAVNwkf0hZEtvn9D-19">
          <mxGeometry y="80" width="228.5" height="25" as="geometry" />
        </mxCell>
        <mxCell id="9z-ysAVNwkf0hZEtvn9D-22" value="&lt;span style=&quot;box-sizing: border-box; font-weight: var(--base-text-weight-semibold, 600); color: rgb(31, 35, 40); font-family: -apple-system, BlinkMacSystemFont, &amp;quot;Segoe UI&amp;quot;, &amp;quot;Noto Sans&amp;quot;, Helvetica, Arial, sans-serif, &amp;quot;Apple Color Emoji&amp;quot;, &amp;quot;Segoe UI Emoji&amp;quot;; font-size: 16px; text-align: left; background-color: rgb(255, 255, 255);&quot;&gt;Reprodutor Musical&lt;/span&gt;" style="swimlane;fontStyle=1;align=center;verticalAlign=middle;childLayout=stackLayout;horizontal=1;startSize=29;horizontalStack=0;resizeParent=1;resizeParentMax=0;resizeLast=0;collapsible=0;marginBottom=0;html=1;whiteSpace=wrap;" vertex="1" parent="1">
          <mxGeometry x="30" y="216" width="260" height="100" as="geometry" />
        </mxCell>
        <mxCell id="9z-ysAVNwkf0hZEtvn9D-43" value="&lt;span style=&quot;color: rgb(0, 0, 0); font-family: Helvetica; font-size: 12px; font-style: normal; font-variant-ligatures: normal; font-variant-caps: normal; font-weight: 400; letter-spacing: normal; orphans: 2; text-align: center; text-indent: 0px; text-transform: none; widows: 2; word-spacing: 0px; -webkit-text-stroke-width: 0px; white-space: normal; background-color: rgb(251, 251, 251); text-decoration-thickness: initial; text-decoration-style: initial; text-decoration-color: initial; display: inline !important; float: none;&quot;&gt;&amp;nbsp; &amp;nbsp; &amp;nbsp; &amp;nbsp; &amp;nbsp; &amp;nbsp; &amp;nbsp; &amp;nbsp; &amp;nbsp; &amp;nbsp; &amp;nbsp; &amp;nbsp; &amp;nbsp; &amp;nbsp; &amp;nbsp; + Tocar() : void&lt;/span&gt;" style="text;whiteSpace=wrap;html=1;" vertex="1" parent="9z-ysAVNwkf0hZEtvn9D-22">
          <mxGeometry y="29" width="260" height="21" as="geometry" />
        </mxCell>
        <mxCell id="9z-ysAVNwkf0hZEtvn9D-44" value="&lt;span style=&quot;color: rgb(0, 0, 0); font-family: Helvetica; font-size: 12px; font-style: normal; font-variant-ligatures: normal; font-variant-caps: normal; font-weight: 400; letter-spacing: normal; orphans: 2; text-align: center; text-indent: 0px; text-transform: none; widows: 2; word-spacing: 0px; -webkit-text-stroke-width: 0px; white-space: normal; background-color: rgb(251, 251, 251); text-decoration-thickness: initial; text-decoration-style: initial; text-decoration-color: initial; display: inline !important; float: none;&quot;&gt;&amp;nbsp; &amp;nbsp; &amp;nbsp; &amp;nbsp; &amp;nbsp; &amp;nbsp; &amp;nbsp; &amp;nbsp; &amp;nbsp; &amp;nbsp; &amp;nbsp; &amp;nbsp; &amp;nbsp; &amp;nbsp; &amp;nbsp; + Ligar() : void&lt;/span&gt;" style="text;whiteSpace=wrap;html=1;" vertex="1" parent="9z-ysAVNwkf0hZEtvn9D-22">
          <mxGeometry y="50" width="260" height="20" as="geometry" />
        </mxCell>
        <mxCell id="9z-ysAVNwkf0hZEtvn9D-23" value="&lt;div&gt;&lt;span style=&quot;background-color: initial;&quot;&gt;+ SelecionarMusica( String : música) : void&lt;/span&gt;&lt;br&gt;&lt;/div&gt;" style="text;html=1;strokeColor=none;fillColor=none;align=center;verticalAlign=middle;spacingLeft=4;spacingRight=4;overflow=hidden;rotatable=0;points=[[0,0.5],[1,0.5]];portConstraint=eastwest;whiteSpace=wrap;" vertex="1" parent="9z-ysAVNwkf0hZEtvn9D-22">
          <mxGeometry y="70" width="260" height="30" as="geometry" />
        </mxCell>
        <mxCell id="9z-ysAVNwkf0hZEtvn9D-30" value="&lt;span style=&quot;box-sizing: border-box; font-weight: var(--base-text-weight-semibold, 600); color: rgb(31, 35, 40); font-family: -apple-system, BlinkMacSystemFont, &amp;quot;Segoe UI&amp;quot;, &amp;quot;Noto Sans&amp;quot;, Helvetica, Arial, sans-serif, &amp;quot;Apple Color Emoji&amp;quot;, &amp;quot;Segoe UI Emoji&amp;quot;; font-size: 16px; text-align: left; background-color: rgb(255, 255, 255);&quot;&gt;Navegador na Internet&lt;/span&gt;" style="swimlane;fontStyle=1;align=center;verticalAlign=middle;childLayout=stackLayout;horizontal=1;startSize=29;horizontalStack=0;resizeParent=1;resizeParentMax=0;resizeLast=0;collapsible=0;marginBottom=0;html=1;whiteSpace=wrap;" vertex="1" parent="1">
          <mxGeometry x="540" y="216.5" width="260" height="120" as="geometry" />
        </mxCell>
        <mxCell id="9z-ysAVNwkf0hZEtvn9D-32" value="&lt;span style=&quot;color: rgb(31, 35, 40); font-family: ui-monospace, SFMono-Regular, &amp;quot;SF Mono&amp;quot;, Menlo, Consolas, &amp;quot;Liberation Mono&amp;quot;, monospace; font-size: 13.6px; white-space-collapse: break-spaces; background-color: rgba(175, 184, 193, 0.2);&quot;&gt;+ exibirPagina(String url) : void&lt;/span&gt;" style="text;html=1;strokeColor=none;fillColor=none;align=left;verticalAlign=middle;spacingLeft=4;spacingRight=4;overflow=hidden;rotatable=0;points=[[0,0.5],[1,0.5]];portConstraint=eastwest;whiteSpace=wrap;" vertex="1" parent="9z-ysAVNwkf0hZEtvn9D-30">
          <mxGeometry y="29" width="260" height="26" as="geometry" />
        </mxCell>
        <mxCell id="9z-ysAVNwkf0hZEtvn9D-45" value="&lt;span style=&quot;color: rgb(31, 35, 40); font-family: ui-monospace, SFMono-Regular, &amp;quot;SF Mono&amp;quot;, Menlo, Consolas, &amp;quot;Liberation Mono&amp;quot;, monospace; font-size: 13.6px; font-style: normal; font-variant-ligatures: normal; font-variant-caps: normal; font-weight: 400; letter-spacing: normal; orphans: 2; text-align: left; text-indent: 0px; text-transform: none; widows: 2; word-spacing: 0px; -webkit-text-stroke-width: 0px; white-space: break-spaces; background-color: rgba(175, 184, 193, 0.2); text-decoration-thickness: initial; text-decoration-style: initial; text-decoration-color: initial; display: inline !important; float: none;&quot;&gt;      + adicionarNovaAba() : void&lt;/span&gt;" style="text;whiteSpace=wrap;html=1;" vertex="1" parent="9z-ysAVNwkf0hZEtvn9D-30">
          <mxGeometry y="55" width="260" height="25" as="geometry" />
        </mxCell>
        <mxCell id="9z-ysAVNwkf0hZEtvn9D-46" value="&lt;span style=&quot;color: rgb(31, 35, 40); font-family: ui-monospace, SFMono-Regular, &amp;quot;SF Mono&amp;quot;, Menlo, Consolas, &amp;quot;Liberation Mono&amp;quot;, monospace; font-size: 13.6px; font-style: normal; font-variant-ligatures: normal; font-variant-caps: normal; font-weight: 400; letter-spacing: normal; orphans: 2; text-align: left; text-indent: 0px; text-transform: none; widows: 2; word-spacing: 0px; -webkit-text-stroke-width: 0px; white-space: break-spaces; background-color: rgba(175, 184, 193, 0.2); text-decoration-thickness: initial; text-decoration-style: initial; text-decoration-color: initial; display: inline !important; float: none;&quot;&gt;      + atualizarPagina() : void&lt;/span&gt;" style="text;whiteSpace=wrap;html=1;" vertex="1" parent="9z-ysAVNwkf0hZEtvn9D-30">
          <mxGeometry y="80" width="260" height="40" as="geometry" />
        </mxCell>
      </root>
    </mxGraphModel>
  </diagram>
</mxfile>
